<?xml version="1.0" encoding="UTF-8" standalone="no"?><svg xmlns="http://www.w3.org/2000/svg" xmlns:xlink="http://www.w3.org/1999/xlink" contentStyleType="text/css" height="804px" preserveAspectRatio="none" style="width:1169px;height:804px;background:#FFFFFF;" version="1.1" viewBox="0 0 1169 804" width="1169px" zoomAndPan="magnify"><defs/><g><!--MD5=[b4cc488166f5e9df9edf24fa6deb7a61]
cluster calculator--><g id="cluster_calculator"><path d="M8.5,129 L92.5,129 A3.75,3.75 0 0 1 95,131.5 L102,151.2969 L1159.5,151.2969 A2.5,2.5 0 0 1 1162,153.7969 L1162,794.5 A2.5,2.5 0 0 1 1159.5,797 L8.5,797 A2.5,2.5 0 0 1 6,794.5 L6,131.5 A2.5,2.5 0 0 1 8.5,129 " fill="none" style="stroke:#000000;stroke-width:1.5;"/><line style="stroke:#000000;stroke-width:1.5;" x1="6" x2="102" y1="151.2969" y2="151.2969"/><text fill="#000000" font-family="sans-serif" font-size="14" font-weight="bold" lengthAdjust="spacing" textLength="83" x="10" y="143.9951">calculator</text></g><!--MD5=[ff7328ddcca9eedf9eca4e91527b4a86]
cluster presenter--><g id="cluster_presenter"><path d="M32.5,172 L111.5,172 A3.75,3.75 0 0 1 114,174.5 L121,194.2969 L379.5,194.2969 A2.5,2.5 0 0 1 382,196.7969 L382,598.5 A2.5,2.5 0 0 1 379.5,601 L32.5,601 A2.5,2.5 0 0 1 30,598.5 L30,174.5 A2.5,2.5 0 0 1 32.5,172 " fill="none" style="stroke:#000000;stroke-width:1.5;"/><line style="stroke:#000000;stroke-width:1.5;" x1="30" x2="121" y1="194.2969" y2="194.2969"/><text fill="#000000" font-family="sans-serif" font-size="14" font-weight="bold" lengthAdjust="spacing" textLength="78" x="34" y="186.9951">presenter</text></g><!--MD5=[10ea673caf457862023e152271927b45]
cluster controller--><g id="cluster_controller"><path d="M408.5,345 L489.5,345 A3.75,3.75 0 0 1 492,347.5 L499,367.2969 L841.5,367.2969 A2.5,2.5 0 0 1 844,369.7969 L844,746 A2.5,2.5 0 0 1 841.5,748.5 L408.5,748.5 A2.5,2.5 0 0 1 406,746 L406,347.5 A2.5,2.5 0 0 1 408.5,345 " fill="none" style="stroke:#000000;stroke-width:1.5;"/><line style="stroke:#000000;stroke-width:1.5;" x1="406" x2="499" y1="367.2969" y2="367.2969"/><text fill="#000000" font-family="sans-serif" font-size="14" font-weight="bold" lengthAdjust="spacing" textLength="80" x="410" y="359.9951">controller</text></g><!--MD5=[5d4cd377749310b66bf14896f5cd8d9b]
cluster model--><g id="cluster_model"><path d="M870.5,625 L920.5,625 A3.75,3.75 0 0 1 923,627.5 L930,647.2969 L1135.5,647.2969 A2.5,2.5 0 0 1 1138,649.7969 L1138,770.5 A2.5,2.5 0 0 1 1135.5,773 L870.5,773 A2.5,2.5 0 0 1 868,770.5 L868,627.5 A2.5,2.5 0 0 1 870.5,625 " fill="none" style="stroke:#000000;stroke-width:1.5;"/><line style="stroke:#000000;stroke-width:1.5;" x1="868" x2="930" y1="647.2969" y2="647.2969"/><text fill="#000000" font-family="sans-serif" font-size="14" font-weight="bold" lengthAdjust="spacing" textLength="49" x="872" y="639.9951">model</text></g><!--MD5=[3e81cc6ee7da4fa8b6adc12b329096f6]
cluster util--><g id="cluster_util"><path d="M707.5,6 L736.5,6 A3.75,3.75 0 0 1 739,8.5 L746,28.2969 L824.5,28.2969 A2.5,2.5 0 0 1 827,30.7969 L827,102.5 A2.5,2.5 0 0 1 824.5,105 L707.5,105 A2.5,2.5 0 0 1 705,102.5 L705,8.5 A2.5,2.5 0 0 1 707.5,6 " fill="none" style="stroke:#000000;stroke-width:1.5;"/><line style="stroke:#000000;stroke-width:1.5;" x1="705" x2="746" y1="28.2969" y2="28.2969"/><text fill="#000000" font-family="sans-serif" font-size="14" font-weight="bold" lengthAdjust="spacing" textLength="28" x="709" y="20.9951">util</text></g><!--MD5=[24c25de4a511b1187032fbecb5ec6757]
class OperationPresenter--><g id="elem_OperationPresenter"><rect codeLine="9" fill="#F1F1F1" height="96.8906" id="OperationPresenter" rx="2.5" ry="2.5" style="stroke:#181818;stroke-width:0.5;" width="176" x="190" y="207"/><ellipse cx="205" cy="223" fill="#ADD1B2" rx="11" ry="11" style="stroke:#181818;stroke-width:1.0;"/><path d="M207.3438,218.6719 C206.4063,218.2344 205.8125,218.0938 204.9375,218.0938 C202.3125,218.0938 200.3125,220.1719 200.3125,222.8906 L200.3125,224.0156 C200.3125,226.5938 202.4219,228.4844 205.3125,228.4844 C206.5313,228.4844 207.6875,228.1875 208.4375,227.6406 C209.0156,227.2344 209.3438,226.7813 209.3438,226.3906 C209.3438,225.9375 208.9531,225.5469 208.4844,225.5469 C208.2656,225.5469 208.0625,225.625 207.875,225.8125 C207.4219,226.2969 207.4219,226.2969 207.2344,226.3906 C206.8125,226.6563 206.125,226.7813 205.3594,226.7813 C203.3125,226.7813 202.0156,225.6875 202.0156,223.9844 L202.0156,222.8906 C202.0156,221.1094 203.2656,219.7969 205,219.7969 C205.5781,219.7969 206.1875,219.9531 206.6563,220.2031 C207.1406,220.4844 207.3125,220.7031 207.4063,221.1094 C207.4688,221.5156 207.5,221.6406 207.6406,221.7656 C207.7813,221.9063 208.0156,222.0156 208.2344,222.0156 C208.5,222.0156 208.7656,221.875 208.9375,221.6563 C209.0469,221.5 209.0781,221.3125 209.0781,220.8906 L209.0781,219.4688 C209.0781,219.0313 209.0625,218.9063 208.9688,218.75 C208.8125,218.4844 208.5313,218.3438 208.2344,218.3438 C207.9375,218.3438 207.7344,218.4375 207.5156,218.75 L207.3438,218.6719 Z " fill="#000000"/><text fill="#000000" font-family="sans-serif" font-size="14" lengthAdjust="spacing" textLength="144" x="219" y="227.8467">OperationPresenter</text><line style="stroke:#181818;stroke-width:0.5;" x1="191" x2="365" y1="239" y2="239"/><line style="stroke:#181818;stroke-width:0.5;" x1="191" x2="365" y1="247" y2="247"/><ellipse cx="201" cy="260.6484" fill="#84BE84" rx="3" ry="3" style="stroke:#038048;stroke-width:1.0;"/><text fill="#000000" font-family="sans-serif" font-size="14" lengthAdjust="spacing" textLength="141" x="210" y="263.9951">executeOperation()</text><ellipse cx="201" cy="276.9453" fill="#84BE84" rx="3" ry="3" style="stroke:#038048;stroke-width:1.0;"/><text fill="#000000" font-family="sans-serif" font-size="14" lengthAdjust="spacing" textLength="66" x="210" y="280.292">doMenu()</text><ellipse cx="201" cy="293.2422" fill="#84BE84" rx="3" ry="3" style="stroke:#038048;stroke-width:1.0;"/><text fill="#000000" font-family="sans-serif" font-size="14" lengthAdjust="spacing" textLength="112" x="210" y="296.5889">listOperations()</text></g><!--MD5=[f66854d9bb6be84e6108217e615f8207]
class OperationRunneable--><g id="elem_OperationRunneable"><rect codeLine="15" fill="#F1F1F1" height="113.1875" id="OperationRunneable" rx="2.5" ry="2.5" style="stroke:#181818;stroke-width:0.5;" width="320" x="46" y="364"/><ellipse cx="127.75" cy="380" fill="#A9DCDF" rx="11" ry="11" style="stroke:#181818;stroke-width:1.0;"/><path d="M129.8281,381.8125 L130.2188,382.7969 L129.8281,382.7969 C129.375,382.7969 129.2656,382.8125 129.1094,382.9219 C128.8594,383.0781 128.7031,383.3594 128.7031,383.6563 C128.7031,383.9219 128.8438,384.1719 129.0625,384.3281 C129.2031,384.4531 129.4063,384.5 129.8281,384.5 L132.1875,384.5 C132.5469,384.5 132.7656,384.4688 132.9063,384.375 C133.1563,384.2344 133.3125,383.9375 133.3125,383.6563 C133.3125,383.375 133.1719,383.125 132.9531,382.9688 C132.7813,382.8281 132.625,382.7969 132.1563,382.7969 L128.7656,374.5938 L125.0938,374.5938 C124.6406,374.5938 124.5156,374.6094 124.3594,374.7031 C124.1094,374.875 123.9531,375.1563 123.9531,375.4375 C123.9531,375.7188 124.0938,375.9688 124.3125,376.1406 C124.4844,376.25 124.6563,376.2813 125.0938,376.2813 L126.1719,376.2813 L123.5313,382.7969 C123.1094,382.7969 122.9531,382.8125 122.7969,382.9219 C122.5469,383.0781 122.3906,383.3594 122.3906,383.6563 C122.3906,384.2188 122.7656,384.5 123.5156,384.5 L125.7813,384.5 C126.1406,384.5 126.3594,384.4688 126.4844,384.375 C126.75,384.2344 126.8906,383.9375 126.8906,383.6563 C126.8906,383.375 126.7656,383.125 126.5469,382.9531 C126.375,382.8281 126.2344,382.7969 125.7813,382.7969 L125.3906,382.7969 L125.7813,381.8125 L129.8281,381.8125 Z M129.125,380.1094 L126.4531,380.1094 L127.7969,376.8438 L129.125,380.1094 Z " fill="#000000"/><text fill="#000000" font-family="sans-serif" font-size="14" font-style="italic" lengthAdjust="spacing" textLength="148" x="148.25" y="384.8467">OperationRunneable</text><line style="stroke:#181818;stroke-width:0.5;" x1="47" x2="365" y1="396" y2="396"/><rect fill="none" height="6" style="stroke:#C82930;stroke-width:1.0;" width="6" x="54" y="406.6484"/><text fill="#000000" font-family="sans-serif" font-size="14" lengthAdjust="spacing" textLength="294" x="66" y="412.9951">OperationController operationController</text><line style="stroke:#181818;stroke-width:0.5;" x1="47" x2="365" y1="420.2969" y2="420.2969"/><ellipse cx="57" cy="433.9453" fill="#84BE84" rx="3" ry="3" style="stroke:#038048;stroke-width:1.0;"/><text fill="#000000" font-family="sans-serif" font-size="14" lengthAdjust="spacing" textLength="91" x="66" y="437.292">obtainData()</text><ellipse cx="57" cy="450.2422" fill="#84BE84" rx="3" ry="3" style="stroke:#038048;stroke-width:1.0;"/><text fill="#000000" font-family="sans-serif" font-size="14" lengthAdjust="spacing" textLength="141" x="66" y="453.5889">executeOperation()</text><ellipse cx="57" cy="466.5391" fill="#84BE84" rx="3" ry="3" style="stroke:#038048;stroke-width:1.0;"/><text fill="#000000" font-family="sans-serif" font-size="14" lengthAdjust="spacing" textLength="112" x="66" y="469.8857">presentResult()</text></g><!--MD5=[d4077d50eb7d5c948cf29e8da2ad1fd9]
class SumPresenter--><g id="elem_SumPresenter"><rect codeLine="22" fill="#F1F1F1" height="48" id="SumPresenter" rx="2.5" ry="2.5" style="stroke:#181818;stroke-width:0.5;" width="134" x="54" y="537"/><ellipse cx="69" cy="553" fill="#ADD1B2" rx="11" ry="11" style="stroke:#181818;stroke-width:1.0;"/><path d="M71.3438,548.6719 C70.4063,548.2344 69.8125,548.0938 68.9375,548.0938 C66.3125,548.0938 64.3125,550.1719 64.3125,552.8906 L64.3125,554.0156 C64.3125,556.5938 66.4219,558.4844 69.3125,558.4844 C70.5313,558.4844 71.6875,558.1875 72.4375,557.6406 C73.0156,557.2344 73.3438,556.7813 73.3438,556.3906 C73.3438,555.9375 72.9531,555.5469 72.4844,555.5469 C72.2656,555.5469 72.0625,555.625 71.875,555.8125 C71.4219,556.2969 71.4219,556.2969 71.2344,556.3906 C70.8125,556.6563 70.125,556.7813 69.3594,556.7813 C67.3125,556.7813 66.0156,555.6875 66.0156,553.9844 L66.0156,552.8906 C66.0156,551.1094 67.2656,549.7969 69,549.7969 C69.5781,549.7969 70.1875,549.9531 70.6563,550.2031 C71.1406,550.4844 71.3125,550.7031 71.4063,551.1094 C71.4688,551.5156 71.5,551.6406 71.6406,551.7656 C71.7813,551.9063 72.0156,552.0156 72.2344,552.0156 C72.5,552.0156 72.7656,551.875 72.9375,551.6563 C73.0469,551.5 73.0781,551.3125 73.0781,550.8906 L73.0781,549.4688 C73.0781,549.0313 73.0625,548.9063 72.9688,548.75 C72.8125,548.4844 72.5313,548.3438 72.2344,548.3438 C71.9375,548.3438 71.7344,548.4375 71.5156,548.75 L71.3438,548.6719 Z " fill="#000000"/><text fill="#000000" font-family="sans-serif" font-size="14" lengthAdjust="spacing" textLength="102" x="83" y="557.8467">SumPresenter</text><line style="stroke:#181818;stroke-width:0.5;" x1="55" x2="187" y1="569" y2="569"/><line style="stroke:#181818;stroke-width:0.5;" x1="55" x2="187" y1="577" y2="577"/></g><!--MD5=[ab97f9f7e843c3e88ccf830e13f8202b]
class MultPresenter--><g id="elem_MultPresenter"><rect codeLine="26" fill="#F1F1F1" height="48" id="MultPresenter" rx="2.5" ry="2.5" style="stroke:#181818;stroke-width:0.5;" width="134" x="223" y="537"/><ellipse cx="238" cy="553" fill="#ADD1B2" rx="11" ry="11" style="stroke:#181818;stroke-width:1.0;"/><path d="M240.3438,548.6719 C239.4063,548.2344 238.8125,548.0938 237.9375,548.0938 C235.3125,548.0938 233.3125,550.1719 233.3125,552.8906 L233.3125,554.0156 C233.3125,556.5938 235.4219,558.4844 238.3125,558.4844 C239.5313,558.4844 240.6875,558.1875 241.4375,557.6406 C242.0156,557.2344 242.3438,556.7813 242.3438,556.3906 C242.3438,555.9375 241.9531,555.5469 241.4844,555.5469 C241.2656,555.5469 241.0625,555.625 240.875,555.8125 C240.4219,556.2969 240.4219,556.2969 240.2344,556.3906 C239.8125,556.6563 239.125,556.7813 238.3594,556.7813 C236.3125,556.7813 235.0156,555.6875 235.0156,553.9844 L235.0156,552.8906 C235.0156,551.1094 236.2656,549.7969 238,549.7969 C238.5781,549.7969 239.1875,549.9531 239.6563,550.2031 C240.1406,550.4844 240.3125,550.7031 240.4063,551.1094 C240.4688,551.5156 240.5,551.6406 240.6406,551.7656 C240.7813,551.9063 241.0156,552.0156 241.2344,552.0156 C241.5,552.0156 241.7656,551.875 241.9375,551.6563 C242.0469,551.5 242.0781,551.3125 242.0781,550.8906 L242.0781,549.4688 C242.0781,549.0313 242.0625,548.9063 241.9688,548.75 C241.8125,548.4844 241.5313,548.3438 241.2344,548.3438 C240.9375,548.3438 240.7344,548.4375 240.5156,548.75 L240.3438,548.6719 Z " fill="#000000"/><text fill="#000000" font-family="sans-serif" font-size="14" lengthAdjust="spacing" textLength="102" x="252" y="557.8467">MultPresenter</text><line style="stroke:#181818;stroke-width:0.5;" x1="224" x2="356" y1="569" y2="569"/><line style="stroke:#181818;stroke-width:0.5;" x1="224" x2="356" y1="577" y2="577"/></g><!--MD5=[dd0cfcd63333e3c97344996dc8494836]
class ListOperationsController--><g id="elem_ListOperationsController"><rect codeLine="38" fill="#F1F1F1" height="48" id="ListOperationsController" rx="2.5" ry="2.5" style="stroke:#181818;stroke-width:0.5;" width="211" x="616.5" y="396.5"/><ellipse cx="631.5" cy="412.5" fill="#ADD1B2" rx="11" ry="11" style="stroke:#181818;stroke-width:1.0;"/><path d="M633.8438,408.1719 C632.9063,407.7344 632.3125,407.5938 631.4375,407.5938 C628.8125,407.5938 626.8125,409.6719 626.8125,412.3906 L626.8125,413.5156 C626.8125,416.0938 628.9219,417.9844 631.8125,417.9844 C633.0313,417.9844 634.1875,417.6875 634.9375,417.1406 C635.5156,416.7344 635.8438,416.2813 635.8438,415.8906 C635.8438,415.4375 635.4531,415.0469 634.9844,415.0469 C634.7656,415.0469 634.5625,415.125 634.375,415.3125 C633.9219,415.7969 633.9219,415.7969 633.7344,415.8906 C633.3125,416.1563 632.625,416.2813 631.8594,416.2813 C629.8125,416.2813 628.5156,415.1875 628.5156,413.4844 L628.5156,412.3906 C628.5156,410.6094 629.7656,409.2969 631.5,409.2969 C632.0781,409.2969 632.6875,409.4531 633.1563,409.7031 C633.6406,409.9844 633.8125,410.2031 633.9063,410.6094 C633.9688,411.0156 634,411.1406 634.1406,411.2656 C634.2813,411.4063 634.5156,411.5156 634.7344,411.5156 C635,411.5156 635.2656,411.375 635.4375,411.1563 C635.5469,411 635.5781,410.8125 635.5781,410.3906 L635.5781,408.9688 C635.5781,408.5313 635.5625,408.4063 635.4688,408.25 C635.3125,407.9844 635.0313,407.8438 634.7344,407.8438 C634.4375,407.8438 634.2344,407.9375 634.0156,408.25 L633.8438,408.1719 Z " fill="#000000"/><text fill="#000000" font-family="sans-serif" font-size="14" lengthAdjust="spacing" textLength="179" x="645.5" y="417.3467">ListOperationsController</text><line style="stroke:#181818;stroke-width:0.5;" x1="617.5" x2="826.5" y1="428.5" y2="428.5"/><line style="stroke:#181818;stroke-width:0.5;" x1="617.5" x2="826.5" y1="436.5" y2="436.5"/></g><!--MD5=[f1e09ef5fa441713e596dd350a602445]
class OperationController--><g id="elem_OperationController"><rect codeLine="42" fill="#F1F1F1" height="48" id="OperationController" rx="2.5" ry="2.5" style="stroke:#181818;stroke-width:0.5;" width="174" x="422" y="537"/><ellipse cx="437" cy="553" fill="#A9DCDF" rx="11" ry="11" style="stroke:#181818;stroke-width:1.0;"/><path d="M439.0781,554.8125 L439.4688,555.7969 L439.0781,555.7969 C438.625,555.7969 438.5156,555.8125 438.3594,555.9219 C438.1094,556.0781 437.9531,556.3594 437.9531,556.6563 C437.9531,556.9219 438.0938,557.1719 438.3125,557.3281 C438.4531,557.4531 438.6563,557.5 439.0781,557.5 L441.4375,557.5 C441.7969,557.5 442.0156,557.4688 442.1563,557.375 C442.4063,557.2344 442.5625,556.9375 442.5625,556.6563 C442.5625,556.375 442.4219,556.125 442.2031,555.9688 C442.0313,555.8281 441.875,555.7969 441.4063,555.7969 L438.0156,547.5938 L434.3438,547.5938 C433.8906,547.5938 433.7656,547.6094 433.6094,547.7031 C433.3594,547.875 433.2031,548.1563 433.2031,548.4375 C433.2031,548.7188 433.3438,548.9688 433.5625,549.1406 C433.7344,549.25 433.9063,549.2813 434.3438,549.2813 L435.4219,549.2813 L432.7813,555.7969 C432.3594,555.7969 432.2031,555.8125 432.0469,555.9219 C431.7969,556.0781 431.6406,556.3594 431.6406,556.6563 C431.6406,557.2188 432.0156,557.5 432.7656,557.5 L435.0313,557.5 C435.3906,557.5 435.6094,557.4688 435.7344,557.375 C436,557.2344 436.1406,556.9375 436.1406,556.6563 C436.1406,556.375 436.0156,556.125 435.7969,555.9531 C435.625,555.8281 435.4844,555.7969 435.0313,555.7969 L434.6406,555.7969 L435.0313,554.8125 L439.0781,554.8125 Z M438.375,553.1094 L435.7031,553.1094 L437.0469,549.8438 L438.375,553.1094 Z " fill="#000000"/><text fill="#000000" font-family="sans-serif" font-size="14" font-style="italic" lengthAdjust="spacing" textLength="142" x="451" y="557.8467">OperationController</text><line style="stroke:#181818;stroke-width:0.5;" x1="423" x2="595" y1="569" y2="569"/><line style="stroke:#181818;stroke-width:0.5;" x1="423" x2="595" y1="577" y2="577"/></g><!--MD5=[42f24813cf78a2de312049795eb80baf]
class SumController--><g id="elem_SumController"><rect codeLine="46" fill="#F1F1F1" height="48" id="SumController" rx="2.5" ry="2.5" style="stroke:#181818;stroke-width:0.5;" width="136" x="431" y="684.5"/><ellipse cx="446" cy="700.5" fill="#ADD1B2" rx="11" ry="11" style="stroke:#181818;stroke-width:1.0;"/><path d="M448.3438,696.1719 C447.4063,695.7344 446.8125,695.5938 445.9375,695.5938 C443.3125,695.5938 441.3125,697.6719 441.3125,700.3906 L441.3125,701.5156 C441.3125,704.0938 443.4219,705.9844 446.3125,705.9844 C447.5313,705.9844 448.6875,705.6875 449.4375,705.1406 C450.0156,704.7344 450.3438,704.2813 450.3438,703.8906 C450.3438,703.4375 449.9531,703.0469 449.4844,703.0469 C449.2656,703.0469 449.0625,703.125 448.875,703.3125 C448.4219,703.7969 448.4219,703.7969 448.2344,703.8906 C447.8125,704.1563 447.125,704.2813 446.3594,704.2813 C444.3125,704.2813 443.0156,703.1875 443.0156,701.4844 L443.0156,700.3906 C443.0156,698.6094 444.2656,697.2969 446,697.2969 C446.5781,697.2969 447.1875,697.4531 447.6563,697.7031 C448.1406,697.9844 448.3125,698.2031 448.4063,698.6094 C448.4688,699.0156 448.5,699.1406 448.6406,699.2656 C448.7813,699.4063 449.0156,699.5156 449.2344,699.5156 C449.5,699.5156 449.7656,699.375 449.9375,699.1563 C450.0469,699 450.0781,698.8125 450.0781,698.3906 L450.0781,696.9688 C450.0781,696.5313 450.0625,696.4063 449.9688,696.25 C449.8125,695.9844 449.5313,695.8438 449.2344,695.8438 C448.9375,695.8438 448.7344,695.9375 448.5156,696.25 L448.3438,696.1719 Z " fill="#000000"/><text fill="#000000" font-family="sans-serif" font-size="14" lengthAdjust="spacing" textLength="104" x="460" y="705.3467">SumController</text><line style="stroke:#181818;stroke-width:0.5;" x1="432" x2="566" y1="716.5" y2="716.5"/><line style="stroke:#181818;stroke-width:0.5;" x1="432" x2="566" y1="724.5" y2="724.5"/></g><!--MD5=[20bffcf632759e2f10bada5ba068d5ea]
class MultController--><g id="elem_MultController"><rect codeLine="50" fill="#F1F1F1" height="48" id="MultController" rx="2.5" ry="2.5" style="stroke:#181818;stroke-width:0.5;" width="136" x="602" y="684.5"/><ellipse cx="617" cy="700.5" fill="#ADD1B2" rx="11" ry="11" style="stroke:#181818;stroke-width:1.0;"/><path d="M619.3438,696.1719 C618.4063,695.7344 617.8125,695.5938 616.9375,695.5938 C614.3125,695.5938 612.3125,697.6719 612.3125,700.3906 L612.3125,701.5156 C612.3125,704.0938 614.4219,705.9844 617.3125,705.9844 C618.5313,705.9844 619.6875,705.6875 620.4375,705.1406 C621.0156,704.7344 621.3438,704.2813 621.3438,703.8906 C621.3438,703.4375 620.9531,703.0469 620.4844,703.0469 C620.2656,703.0469 620.0625,703.125 619.875,703.3125 C619.4219,703.7969 619.4219,703.7969 619.2344,703.8906 C618.8125,704.1563 618.125,704.2813 617.3594,704.2813 C615.3125,704.2813 614.0156,703.1875 614.0156,701.4844 L614.0156,700.3906 C614.0156,698.6094 615.2656,697.2969 617,697.2969 C617.5781,697.2969 618.1875,697.4531 618.6563,697.7031 C619.1406,697.9844 619.3125,698.2031 619.4063,698.6094 C619.4688,699.0156 619.5,699.1406 619.6406,699.2656 C619.7813,699.4063 620.0156,699.5156 620.2344,699.5156 C620.5,699.5156 620.7656,699.375 620.9375,699.1563 C621.0469,699 621.0781,698.8125 621.0781,698.3906 L621.0781,696.9688 C621.0781,696.5313 621.0625,696.4063 620.9688,696.25 C620.8125,695.9844 620.5313,695.8438 620.2344,695.8438 C619.9375,695.8438 619.7344,695.9375 619.5156,696.25 L619.3438,696.1719 Z " fill="#000000"/><text fill="#000000" font-family="sans-serif" font-size="14" lengthAdjust="spacing" textLength="104" x="631" y="705.3467">MultController</text><line style="stroke:#181818;stroke-width:0.5;" x1="603" x2="737" y1="716.5" y2="716.5"/><line style="stroke:#181818;stroke-width:0.5;" x1="603" x2="737" y1="724.5" y2="724.5"/></g><!--MD5=[776a0e89e09c86de9599a24d46bfde57]
class OperationFactory--><g id="elem_OperationFactory"><rect codeLine="54" fill="#F1F1F1" height="80.5938" id="OperationFactory" rx="2.5" ry="2.5" style="stroke:#181818;stroke-width:0.5;" width="159" x="422.5" y="380"/><ellipse cx="437.5" cy="396" fill="#ADD1B2" rx="11" ry="11" style="stroke:#181818;stroke-width:1.0;"/><path d="M439.8438,391.6719 C438.9063,391.2344 438.3125,391.0938 437.4375,391.0938 C434.8125,391.0938 432.8125,393.1719 432.8125,395.8906 L432.8125,397.0156 C432.8125,399.5938 434.9219,401.4844 437.8125,401.4844 C439.0313,401.4844 440.1875,401.1875 440.9375,400.6406 C441.5156,400.2344 441.8438,399.7813 441.8438,399.3906 C441.8438,398.9375 441.4531,398.5469 440.9844,398.5469 C440.7656,398.5469 440.5625,398.625 440.375,398.8125 C439.9219,399.2969 439.9219,399.2969 439.7344,399.3906 C439.3125,399.6563 438.625,399.7813 437.8594,399.7813 C435.8125,399.7813 434.5156,398.6875 434.5156,396.9844 L434.5156,395.8906 C434.5156,394.1094 435.7656,392.7969 437.5,392.7969 C438.0781,392.7969 438.6875,392.9531 439.1563,393.2031 C439.6406,393.4844 439.8125,393.7031 439.9063,394.1094 C439.9688,394.5156 440,394.6406 440.1406,394.7656 C440.2813,394.9063 440.5156,395.0156 440.7344,395.0156 C441,395.0156 441.2656,394.875 441.4375,394.6563 C441.5469,394.5 441.5781,394.3125 441.5781,393.8906 L441.5781,392.4688 C441.5781,392.0313 441.5625,391.9063 441.4688,391.75 C441.3125,391.4844 441.0313,391.3438 440.7344,391.3438 C440.4375,391.3438 440.2344,391.4375 440.0156,391.75 L439.8438,391.6719 Z " fill="#000000"/><text fill="#000000" font-family="sans-serif" font-size="14" lengthAdjust="spacing" textLength="127" x="451.5" y="400.8467">OperationFactory</text><line style="stroke:#181818;stroke-width:0.5;" x1="423.5" x2="580.5" y1="412" y2="412"/><ellipse cx="433.5" cy="425.6484" fill="none" rx="3" ry="3" style="stroke:#038048;stroke-width:1.0;"/><text fill="#000000" font-family="sans-serif" font-size="14" lengthAdjust="spacing" textLength="31" x="442.5" y="428.9951">Sum</text><ellipse cx="433.5" cy="441.9453" fill="none" rx="3" ry="3" style="stroke:#038048;stroke-width:1.0;"/><text fill="#000000" font-family="sans-serif" font-size="14" lengthAdjust="spacing" textLength="31" x="442.5" y="445.292">Mult</text><line style="stroke:#181818;stroke-width:0.5;" x1="423.5" x2="580.5" y1="452.5938" y2="452.5938"/></g><!--MD5=[c794b5bd2e0e4534d51a3ecd08a55fa7]
class OperationHistory--><g id="elem_OperationHistory"><rect codeLine="67" fill="#F1F1F1" height="96.8906" id="OperationHistory" rx="2.5" ry="2.5" style="stroke:#181818;stroke-width:0.5;" width="238" x="884" y="660"/><ellipse cx="936.75" cy="676" fill="#ADD1B2" rx="11" ry="11" style="stroke:#181818;stroke-width:1.0;"/><path d="M939.0938,671.6719 C938.1563,671.2344 937.5625,671.0938 936.6875,671.0938 C934.0625,671.0938 932.0625,673.1719 932.0625,675.8906 L932.0625,677.0156 C932.0625,679.5938 934.1719,681.4844 937.0625,681.4844 C938.2813,681.4844 939.4375,681.1875 940.1875,680.6406 C940.7656,680.2344 941.0938,679.7813 941.0938,679.3906 C941.0938,678.9375 940.7031,678.5469 940.2344,678.5469 C940.0156,678.5469 939.8125,678.625 939.625,678.8125 C939.1719,679.2969 939.1719,679.2969 938.9844,679.3906 C938.5625,679.6563 937.875,679.7813 937.1094,679.7813 C935.0625,679.7813 933.7656,678.6875 933.7656,676.9844 L933.7656,675.8906 C933.7656,674.1094 935.0156,672.7969 936.75,672.7969 C937.3281,672.7969 937.9375,672.9531 938.4063,673.2031 C938.8906,673.4844 939.0625,673.7031 939.1563,674.1094 C939.2188,674.5156 939.25,674.6406 939.3906,674.7656 C939.5313,674.9063 939.7656,675.0156 939.9844,675.0156 C940.25,675.0156 940.5156,674.875 940.6875,674.6563 C940.7969,674.5 940.8281,674.3125 940.8281,673.8906 L940.8281,672.4688 C940.8281,672.0313 940.8125,671.9063 940.7188,671.75 C940.5625,671.4844 940.2813,671.3438 939.9844,671.3438 C939.6875,671.3438 939.4844,671.4375 939.2656,671.75 L939.0938,671.6719 Z " fill="#000000"/><text fill="#000000" font-family="sans-serif" font-size="14" lengthAdjust="spacing" textLength="124" x="957.25" y="680.8467">OperationHistory</text><line style="stroke:#181818;stroke-width:0.5;" x1="885" x2="1121" y1="692" y2="692"/><rect fill="none" height="6" style="stroke:#C82930;stroke-width:1.0;" width="6" x="892" y="702.6484"/><text fill="#000000" font-family="sans-serif" font-size="14" lengthAdjust="spacing" text-decoration="underline" textLength="146" x="904" y="708.9951">List&lt;String&gt; history</text><line style="stroke:#181818;stroke-width:0.5;" x1="885" x2="1121" y1="716.2969" y2="716.2969"/><rect fill="#F24D5C" height="6" style="stroke:#C82930;stroke-width:1.0;" width="6" x="892" y="726.9453"/><text fill="#000000" font-family="sans-serif" font-size="14" lengthAdjust="spacing" text-decoration="underline" textLength="163" x="904" y="733.292">push(String operation)</text><rect fill="#F24D5C" height="6" style="stroke:#C82930;stroke-width:1.0;" width="6" x="892" y="743.2422"/><text fill="#000000" font-family="sans-serif" font-size="14" lengthAdjust="spacing" text-decoration="underline" textLength="212" x="904" y="749.5889">getOperations():List&lt;String&gt;</text></g><!--MD5=[315b61b427ec618d6861d47eee00cca3]
class Console--><g id="elem_Console"><rect codeLine="88" fill="#F1F1F1" height="48" id="Console" rx="2.5" ry="2.5" style="stroke:#181818;stroke-width:0.5;" width="89" x="721.5" y="41"/><ellipse cx="736.5" cy="57" fill="#ADD1B2" rx="11" ry="11" style="stroke:#181818;stroke-width:1.0;"/><path d="M738.8438,52.6719 C737.9063,52.2344 737.3125,52.0938 736.4375,52.0938 C733.8125,52.0938 731.8125,54.1719 731.8125,56.8906 L731.8125,58.0156 C731.8125,60.5938 733.9219,62.4844 736.8125,62.4844 C738.0313,62.4844 739.1875,62.1875 739.9375,61.6406 C740.5156,61.2344 740.8438,60.7813 740.8438,60.3906 C740.8438,59.9375 740.4531,59.5469 739.9844,59.5469 C739.7656,59.5469 739.5625,59.625 739.375,59.8125 C738.9219,60.2969 738.9219,60.2969 738.7344,60.3906 C738.3125,60.6563 737.625,60.7813 736.8594,60.7813 C734.8125,60.7813 733.5156,59.6875 733.5156,57.9844 L733.5156,56.8906 C733.5156,55.1094 734.7656,53.7969 736.5,53.7969 C737.0781,53.7969 737.6875,53.9531 738.1563,54.2031 C738.6406,54.4844 738.8125,54.7031 738.9063,55.1094 C738.9688,55.5156 739,55.6406 739.1406,55.7656 C739.2813,55.9063 739.5156,56.0156 739.7344,56.0156 C740,56.0156 740.2656,55.875 740.4375,55.6563 C740.5469,55.5 740.5781,55.3125 740.5781,54.8906 L740.5781,53.4688 C740.5781,53.0313 740.5625,52.9063 740.4688,52.75 C740.3125,52.4844 740.0313,52.3438 739.7344,52.3438 C739.4375,52.3438 739.2344,52.4375 739.0156,52.75 L738.8438,52.6719 Z " fill="#000000"/><text fill="#000000" font-family="sans-serif" font-size="14" lengthAdjust="spacing" textLength="57" x="750.5" y="61.8467">Console</text><line style="stroke:#181818;stroke-width:0.5;" x1="722.5" x2="809.5" y1="73" y2="73"/><line style="stroke:#181818;stroke-width:0.5;" x1="722.5" x2="809.5" y1="81" y2="81"/></g><!--MD5=[84718776d214be480e4c259efcb737fc]
class Main--><g id="elem_Main"><rect codeLine="1" fill="#F1F1F1" height="64.2969" id="Main" rx="2.5" ry="2.5" style="stroke:#181818;stroke-width:0.5;" width="149" x="203.5" y="33"/><ellipse cx="257.25" cy="49" fill="#ADD1B2" rx="11" ry="11" style="stroke:#181818;stroke-width:1.0;"/><path d="M259.5938,44.6719 C258.6563,44.2344 258.0625,44.0938 257.1875,44.0938 C254.5625,44.0938 252.5625,46.1719 252.5625,48.8906 L252.5625,50.0156 C252.5625,52.5938 254.6719,54.4844 257.5625,54.4844 C258.7813,54.4844 259.9375,54.1875 260.6875,53.6406 C261.2656,53.2344 261.5938,52.7813 261.5938,52.3906 C261.5938,51.9375 261.2031,51.5469 260.7344,51.5469 C260.5156,51.5469 260.3125,51.625 260.125,51.8125 C259.6719,52.2969 259.6719,52.2969 259.4844,52.3906 C259.0625,52.6563 258.375,52.7813 257.6094,52.7813 C255.5625,52.7813 254.2656,51.6875 254.2656,49.9844 L254.2656,48.8906 C254.2656,47.1094 255.5156,45.7969 257.25,45.7969 C257.8281,45.7969 258.4375,45.9531 258.9063,46.2031 C259.3906,46.4844 259.5625,46.7031 259.6563,47.1094 C259.7188,47.5156 259.75,47.6406 259.8906,47.7656 C260.0313,47.9063 260.2656,48.0156 260.4844,48.0156 C260.75,48.0156 261.0156,47.875 261.1875,47.6563 C261.2969,47.5 261.3281,47.3125 261.3281,46.8906 L261.3281,45.4688 C261.3281,45.0313 261.3125,44.9063 261.2188,44.75 C261.0625,44.4844 260.7813,44.3438 260.4844,44.3438 C260.1875,44.3438 259.9844,44.4375 259.7656,44.75 L259.5938,44.6719 Z " fill="#000000"/><text fill="#000000" font-family="sans-serif" font-size="14" lengthAdjust="spacing" textLength="33" x="277.75" y="53.8467">Main</text><line style="stroke:#181818;stroke-width:0.5;" x1="204.5" x2="351.5" y1="65" y2="65"/><line style="stroke:#181818;stroke-width:0.5;" x1="204.5" x2="351.5" y1="73" y2="73"/><ellipse cx="214.5" cy="86.6484" fill="#84BE84" rx="3" ry="3" style="stroke:#038048;stroke-width:1.0;"/><text fill="#000000" font-family="sans-serif" font-size="14" lengthAdjust="spacing" text-decoration="underline" textLength="123" x="223.5" y="89.9951">main(String args)</text></g><!--MD5=[f9c9073e6ede2b2dbabd0fad4d785927]
reverse link OperationRunneable to SumPresenter--><g id="link_OperationRunneable_SumPresenter"><path codeLine="30" d="M161.246,494.423 C151.761,509.877 142.427,525.087 135.139,536.962 " fill="none" id="OperationRunneable-backto-SumPresenter" style="stroke:#181818;stroke-width:1.0;"/><polygon fill="none" points="155.49,490.42,171.917,477.035,167.422,497.743,155.49,490.42" style="stroke:#181818;stroke-width:1.0;"/></g><!--MD5=[fdf4bfac7025df98fe90a2cff0d02ba2]
reverse link OperationRunneable to MultPresenter--><g id="link_OperationRunneable_MultPresenter"><path codeLine="31" d="M250.228,494.423 C259.601,509.877 268.825,525.087 276.027,536.962 " fill="none" id="OperationRunneable-backto-MultPresenter" style="stroke:#181818;stroke-width:1.0;"/><polygon fill="none" points="244.068,497.766,239.682,477.035,256.039,490.506,244.068,497.766" style="stroke:#181818;stroke-width:1.0;"/></g><!--MD5=[b4b27d35b07f9c02308ec7f54c3731eb]
link OperationPresenter to OperationRunneable--><g id="link_OperationPresenter_OperationRunneable"><path codeLine="32" d="M256.981,304.085 C249.366,321.323 240.663,341.026 232.63,359.214 " fill="none" id="OperationPresenter-to-OperationRunneable" style="stroke:#181818;stroke-width:1.0;stroke-dasharray:7.0,7.0;"/><polygon fill="#181818" points="230.602,363.803,237.8968,357.1859,232.6218,359.2291,230.5786,353.9542,230.602,363.803" style="stroke:#181818;stroke-width:1.0;"/></g><!--MD5=[8daa3d7d340f8cdaa22387b0e83639b8]
reverse link OperationController to SumController--><g id="link_OperationController_SumController"><path codeLine="59" d="M506.019,605.378 C504.246,631.174 502.066,662.892 500.61,684.071 " fill="none" id="OperationController-backto-SumController" style="stroke:#181818;stroke-width:1.0;"/><polygon fill="none" points="499.061,604.528,507.415,585.055,513.028,605.488,499.061,604.528" style="stroke:#181818;stroke-width:1.0;"/></g><!--MD5=[86bb28a8811ee148ad137c14f5ec068b]
reverse link OperationController to MultController--><g id="link_OperationController_MultController"><path codeLine="60" d="M559.524,597.136 C567.901,603.499 576.345,610.261 584,617 C608.241,638.339 633.397,665.496 650.192,684.469 " fill="none" id="OperationController-backto-MultController" style="stroke:#181818;stroke-width:1.0;"/><polygon fill="none" points="555.179,602.63,543.216,585.14,563.475,591.352,555.179,602.63" style="stroke:#181818;stroke-width:1.0;"/></g><!--MD5=[93679357b119bbdde26f3eed4c13a6f8]
link OperationFactory to OperationController--><g id="link_OperationFactory_OperationController"><path codeLine="62" d="M504.006,461.189 C505.146,483.738 506.545,511.435 507.573,531.762 " fill="none" id="OperationFactory-to-OperationController" style="stroke:#181818;stroke-width:1.0;stroke-dasharray:7.0,7.0;"/><polygon fill="#181818" points="507.826,536.763,511.3658,527.5723,507.5732,531.7694,503.376,527.9768,507.826,536.763" style="stroke:#181818;stroke-width:1.0;"/></g><!--MD5=[e9668d79f2398af710d3a6f444ed1b79]
reverse link OperationRunneable to OperationController--><g id="link_OperationRunneable_OperationController"><path codeLine="78" d="M339.369,482.462 C381.685,501.805 425.916,522.023 458.599,536.962 " fill="none" id="OperationRunneable-backto-OperationController" style="stroke:#181818;stroke-width:1.0;"/><polygon fill="none" points="327.496,477.035,331.29,483.1673,338.4099,482.0238,334.6158,475.8914,327.496,477.035" style="stroke:#181818;stroke-width:1.0;"/></g><!--MD5=[a6e14f653b4ed46f04e571f9374d387d]
link OperationPresenter to OperationFactory--><g id="link_OperationPresenter_OperationFactory"><path codeLine="79" d="M343.392,304.085 C375.03,327.107 412.707,354.523 443.399,376.857 " fill="none" id="OperationPresenter-to-OperationFactory" style="stroke:#181818;stroke-width:1.0;stroke-dasharray:7.0,7.0;"/><polygon fill="#181818" points="447.49,379.834,442.5676,371.3034,443.4476,376.8914,437.8596,377.7714,447.49,379.834" style="stroke:#181818;stroke-width:1.0;"/></g><!--MD5=[acbd9cdaac935f85843fc67d49d8c0ba]
link OperationController to OperationHistory--><g id="link_OperationController_OperationHistory"><path codeLine="81" d="M596.115,567.805 C664.991,574.396 762.74,588.247 844,617 C872.589,627.116 901.969,642.274 927.574,657.307 " fill="none" id="OperationController-to-OperationHistory" style="stroke:#181818;stroke-width:1.0;stroke-dasharray:7.0,7.0;"/><polygon fill="#181818" points="931.979,659.914,926.2699,651.8887,927.6757,657.368,922.1964,658.7739,931.979,659.914" style="stroke:#181818;stroke-width:1.0;"/></g><!--MD5=[ded0ba25e5a0f8586364e040f1bd9518]
link ListOperationsController to OperationHistory--><g id="link_ListOperationsController_OperationHistory"><path codeLine="82" d="M744.995,444.905 C790.105,490.816 891.138,593.648 952.536,656.138 " fill="none" id="ListOperationsController-to-OperationHistory" style="stroke:#181818;stroke-width:1.0;stroke-dasharray:7.0,7.0;"/><polygon fill="#181818" points="956.157,659.824,952.7015,650.6012,952.6523,656.2579,946.9957,656.2087,956.157,659.824" style="stroke:#181818;stroke-width:1.0;"/></g><!--MD5=[eb0a8a9c2feb197a64a39660b58fd9f9]
link OperationPresenter to ListOperationsController--><g id="link_OperationPresenter_ListOperationsController"><path codeLine="83" d="M366.186,270.137 C432.24,282.347 523.791,303.57 599,337 C632.095,351.71 666.007,375.208 689.818,393.37 " fill="none" id="OperationPresenter-to-ListOperationsController" style="stroke:#181818;stroke-width:1.0;stroke-dasharray:7.0,7.0;"/><polygon fill="#181818" points="693.847,396.466,689.1491,387.8098,689.8828,393.4189,684.2737,394.1526,693.847,396.466" style="stroke:#181818;stroke-width:1.0;"/></g><!--MD5=[977293b1cee3f4bccd2cb6ae1e0b9fb0]
link Main to OperationPresenter--><g id="link_Main_OperationPresenter"><path codeLine="94" d="M278,97.127 C278,125.416 278,167.746 278,201.381 " fill="none" id="Main-to-OperationPresenter" style="stroke:#181818;stroke-width:1.0;stroke-dasharray:7.0,7.0;"/><polygon fill="#181818" points="278,206.701,282,197.701,278,201.701,274,197.701,278,206.701" style="stroke:#181818;stroke-width:1.0;"/></g><!--MD5=[59b0cd5111da05c3538f92f4b84c6bc4]
@startuml
class Main{
    +{static}main(String args)
}

package calculator{

    package presenter{

        class OperationPresenter{
            +executeOperation()
            +doMenu()
            +listOperations()
        }

        abstract OperationRunneable{
            -OperationController operationController
            +obtainData()
            +executeOperation()
            +presentResult()
        }

        class SumPresenter{

        }

        class MultPresenter{

        }

        SumPresenter -up-|> OperationRunneable
        MultPresenter -up-|> OperationRunneable
        OperationPresenter ..> OperationRunneable

    }

    package controller{
        
        class ListOperationsController{

        }

        abstract OperationController{
            
        }

        class SumController{

        }

        class MultController{

        }

        class OperationFactory{
            +Sum
            +Mult
        }

        SumController -up-|> OperationController
        MultController -up-|> OperationController

        OperationFactory ..> OperationController
    }

    package model{

        class OperationHistory{
            -{static}List<String> history
            -{static}push(String operation)
            -{static}getOperations():List<String>
        }

    }




    OperationRunneable o- - OperationController
    OperationPresenter ..> OperationFactory

    OperationController ..> OperationHistory
    ListOperationsController ..> OperationHistory
    OperationPresenter ..> ListOperationsController
    
}

package util{
    class Console{
        
    }
}


Main ..> OperationPresenter
@enduml

PlantUML version 1.2022.8beta2(Unknown compile time)
(GPL source distribution)
Java Runtime: Java(TM) SE Runtime Environment
JVM: Java HotSpot(TM) 64-Bit Server VM
Default Encoding: UTF-8
Language: en
Country: US
--></g></svg>